# xmcd
#
# Track frame offsets:
#	150
#	24241
#	41795
#	65021
#	92484
#	112955
#	134719
#	149934
#	165110
#	180495
#	202263
#	212511
#
# Disc length: 3136 seconds
#
# Revision: 0
# Processed by: cddbd v1.5.2PL0 Copyright (c) Steve Scherf et al.
# Submitted via: dBpowerAMP V4.0
#
DISCID=af0c3e0c
DTITLE=Menwar - Ay Ay Lolo
DYEAR=1900
DGENRE=world
TTITLE0=Lotis
TTITLE1=Ras dimunn
TTITLE2=Sizann
TTITLE3=Melodi la mer
TTITLE4=Wilyem
TTITLE5=Baz militer
TTITLE6=Sannzale
TTITLE7=Piti o
TTITLE8=Pryer lapremidi
TTITLE9=Ay ay lolo
TTITLE10=Latizann o
TTITLE11=Labolision lesklavaz
EXTD=
EXTT0=
EXTT1=
EXTT2=
EXTT3=
EXTT4=
EXTT5=
EXTT6=
EXTT7=
EXTT8=
EXTT9=
EXTT10=
EXTT11=
PLAYORDER=
